<svg width="2054" height="362" viewBox="0 0 2054 362" fill="none" xmlns="http://www.w3.org/2000/svg">
<g clip-path="url(#clip0_6802_6832)">
<path d="M321.186 210.772C321.184 220.458 321.186 224.763 321.186 224.763C321.186 224.763 321.263 247.854 321.186 258.323C321.111 268.789 308.695 274.461 300.793 269.922C292.892 265.384 248.692 226.244 248.692 226.244C246.412 224.404 243.573 223.4 240.648 223.4H125.163C108.515 223.4 79.1738 210.343 79.1738 193.552V71.1721C79.1738 54.3814 92.7121 40.7266 109.36 40.7266L290.476 57.4636C307.123 57.4636 321.111 71.5905 321.111 88.3814L321.186 189.247C321.186 206.038 321.188 201.086 321.186 210.772Z" fill="white"></path>
<path d="M46.3959 270.217C47.5261 271.351 48.6562 272.486 48.6562 272.486L94.5462 318.678C99.9237 324.18 109.246 320.361 109.246 312.653V279.034C109.246 274.217 113.189 270.337 117.99 270.432L251.326 273.063C269.258 273.063 283.839 259.418 283.839 242.637L300.862 120.927C300.862 104.147 286.278 90.5 268.348 90.5L73.2606 107.227C55.3288 107.227 40.7461 120.874 40.7461 137.654C40.7461 137.654 40.6818 243.368 40.7504 254.341C40.8187 265.317 45.2658 269.084 46.3959 270.217Z" fill="#142572"></path>
<path d="M244.257 175.11C241.092 184.685 235.74 193.449 228.66 200.682L227.963 201.382C220.716 208.567 211.892 214.006 202.201 217.171C192.192 220.441 181.544 221.189 171.237 219.225L170.319 219.042C160.846 217.102 152.021 213.171 143.915 206.14C144.004 206.217 144.084 206.285 144.115 206.311C144.107 206.304 143.965 206.186 143.807 206.05C143.562 205.839 142.674 205.074 141.732 203.951C140.949 203.019 138.814 200.332 137.988 196.17C136.975 191.067 138.34 185.906 141.499 182.006L141.81 181.633C147.001 175.579 155.606 173.886 162.666 177.333L163.345 177.684C170.52 181.583 175.832 184.228 179.911 185.105L180.301 185.185C184.515 185.988 186.677 185.87 191.393 184.329C195.682 182.928 199.717 180.51 203.126 177.23L203.798 176.564C206.575 173.728 209.217 168.93 211.443 163.639L211.883 162.575C214.44 156.273 222.095 149.835 232.012 152.219L232.485 152.34C241.975 154.872 247.515 164.768 244.558 174.181L244.257 175.11Z" fill="white"></path>
<path d="M425.277 271.501V54.3008H511.579C523.374 54.3008 534.033 57.3002 543.552 63.299C553.177 69.1946 560.783 77.1584 566.37 87.191C572.061 97.1202 574.907 108.135 574.907 120.236C574.907 129.752 573.251 138.595 569.94 146.766C566.628 154.833 561.972 161.918 555.971 168.02C549.97 174.123 542.984 178.88 535.017 182.294L584.992 271.501H537.345L487.829 186.172H468.117V271.501H425.277ZM468.117 143.353H506.456C511.113 143.353 515.355 142.215 519.185 139.94C523.116 137.561 526.22 134.406 528.498 130.476C530.877 126.442 532.067 121.995 532.067 117.134C532.067 112.376 530.877 108.032 528.498 104.102C526.22 100.068 523.116 96.8616 519.185 94.4828C515.355 92.104 511.113 90.9144 506.456 90.9144H468.117V143.353Z" fill="white"></path>
<path d="M726.058 112.324H768.898V271.501H725.902L723.884 251.333C719.848 257.331 714.675 262.193 708.363 265.915C702.05 269.639 694.653 271.501 686.168 271.501C674.576 271.501 663.764 269.329 653.727 264.985C643.69 260.641 634.842 254.641 627.185 246.989C619.528 239.335 613.524 230.491 609.179 220.459C604.937 210.323 602.815 199.463 602.815 187.879C602.815 176.812 604.833 166.469 608.869 156.85C612.904 147.232 618.596 138.75 625.943 131.407C633.291 124.064 641.724 118.323 651.243 114.186C660.866 110.049 671.215 107.98 682.286 107.98C691.807 107.98 700.344 109.997 707.897 114.031C715.555 118.065 722.23 123.184 727.919 129.39L726.058 112.324ZM685.079 230.387C692.117 230.387 698.48 228.577 704.172 224.958C709.863 221.338 714.365 216.477 717.677 210.375C720.988 204.169 722.644 197.343 722.644 189.896C722.644 182.346 720.988 175.519 717.677 169.417C714.365 163.315 709.863 158.454 704.172 154.834C698.48 151.214 692.117 149.404 685.079 149.404C677.94 149.404 671.473 151.214 665.677 154.834C659.884 158.454 655.278 163.366 651.865 169.572C648.449 175.674 646.741 182.449 646.741 189.896C646.741 197.343 648.449 204.169 651.865 210.375C655.382 216.477 660.038 221.338 665.833 224.958C671.629 228.577 678.044 230.387 685.079 230.387Z" fill="white"></path>
<path d="M896.23 218.442L934.722 239.231C927.583 248.953 918.632 256.763 907.871 262.657C897.108 268.553 885.363 271.501 872.636 271.501C858.355 271.501 845.316 267.829 833.522 260.485C821.829 253.143 812.464 243.317 805.426 231.009C798.493 218.597 795.027 204.893 795.027 189.896C795.027 178.519 797.045 167.917 801.081 158.091C805.116 148.162 810.652 139.474 817.689 132.028C824.828 124.477 833.108 118.582 842.523 114.341C851.94 110.101 861.977 107.98 872.636 107.98C885.363 107.98 897.108 110.928 907.871 116.824C918.632 122.719 927.583 130.631 934.722 140.56L896.23 161.349C893.022 157.936 889.348 155.351 885.209 153.592C881.173 151.731 876.981 150.8 872.636 150.8C866.012 150.8 860.063 152.61 854.786 156.23C849.612 159.85 845.473 164.659 842.369 170.658C839.367 176.553 837.867 182.966 837.867 189.896C837.867 196.722 839.419 203.083 842.523 208.978C845.629 214.874 849.766 219.631 854.942 223.251C860.219 226.871 866.117 228.681 872.636 228.681C877.086 228.681 881.327 227.751 885.363 225.889C889.398 224.027 893.022 221.545 896.23 218.442Z" fill="white"></path>
<path d="M1062.51 218.442L1101 239.231C1093.86 248.953 1084.91 256.763 1074.15 262.657C1063.39 268.553 1051.64 271.501 1038.91 271.501C1024.63 271.501 1011.6 267.829 999.798 260.485C988.105 253.143 978.74 243.317 971.705 231.009C964.772 218.597 961.304 204.893 961.304 189.896C961.304 178.519 963.322 167.917 967.357 158.091C971.393 148.162 976.93 139.474 983.966 132.028C991.107 124.477 999.384 118.582 1008.8 114.341C1018.22 110.101 1028.26 107.98 1038.91 107.98C1051.64 107.98 1063.39 110.928 1074.15 116.824C1084.91 122.719 1093.86 130.631 1101 140.56L1062.51 161.349C1059.3 157.936 1055.62 155.351 1051.49 153.592C1047.45 151.731 1043.26 150.8 1038.91 150.8C1032.29 150.8 1026.34 152.61 1021.06 156.23C1015.89 159.85 1011.75 164.659 1008.65 170.658C1005.65 176.553 1004.14 182.966 1004.14 189.896C1004.14 196.722 1005.7 203.083 1008.8 208.978C1011.9 214.874 1016.04 219.631 1021.22 223.251C1026.5 226.871 1032.39 228.681 1038.91 228.681C1043.36 228.681 1047.61 227.751 1051.64 225.889C1055.68 224.027 1059.3 221.545 1062.51 218.442Z" fill="white"></path>
<path d="M1205.31 271.501C1191.03 271.501 1177.99 267.829 1166.2 260.485C1154.5 253.143 1145.14 243.317 1138.1 231.009C1131.17 218.597 1127.7 204.893 1127.7 189.896C1127.7 178.519 1129.72 167.917 1133.76 158.091C1137.79 148.162 1143.33 139.474 1150.36 132.027C1157.5 124.477 1165.78 118.582 1175.2 114.341C1184.61 110.101 1194.65 107.98 1205.31 107.98C1219.59 107.98 1232.58 111.652 1244.27 118.996C1256.07 126.339 1265.43 136.216 1272.36 148.628C1279.4 161.039 1282.92 174.795 1282.92 189.896C1282.92 201.169 1280.9 211.719 1276.87 221.545C1272.83 231.371 1267.24 240.059 1260.1 247.609C1253.07 255.055 1244.84 260.899 1235.42 265.141C1226.11 269.381 1216.07 271.501 1205.31 271.501ZM1205.31 228.681C1211.93 228.681 1217.88 226.923 1223.16 223.407C1228.44 219.787 1232.58 215.029 1235.58 209.133C1238.58 203.238 1240.08 196.825 1240.08 189.896C1240.08 182.759 1238.48 176.243 1235.27 170.348C1232.16 164.349 1227.97 159.591 1222.7 156.075C1217.42 152.558 1211.62 150.8 1205.31 150.8C1198.79 150.8 1192.89 152.61 1187.62 156.23C1182.34 159.85 1178.15 164.607 1175.04 170.503C1172.04 176.398 1170.54 182.863 1170.54 189.896C1170.54 197.239 1172.09 203.859 1175.2 209.754C1178.41 215.546 1182.65 220.149 1187.93 223.562C1193.2 226.975 1199 228.681 1205.31 228.681Z" fill="white"></path>
<path d="M1386.9 271.501C1372.62 271.501 1359.58 267.829 1347.79 260.485C1336.1 253.143 1326.73 243.317 1319.69 231.009C1312.76 218.597 1309.3 204.893 1309.3 189.896C1309.3 178.519 1311.31 167.917 1315.35 158.091C1319.38 148.162 1324.92 139.474 1331.96 132.027C1339.1 124.477 1347.38 118.582 1356.79 114.341C1366.21 110.101 1376.25 107.98 1386.9 107.98C1401.19 107.98 1414.17 111.652 1425.86 118.996C1437.66 126.339 1447.02 136.216 1453.96 148.628C1461 161.039 1464.51 174.795 1464.51 189.896C1464.51 201.169 1462.5 211.719 1458.46 221.545C1454.42 231.371 1448.84 240.059 1441.7 247.609C1434.66 255.055 1426.43 260.899 1417.02 265.141C1407.7 269.381 1397.67 271.501 1386.9 271.501ZM1386.9 228.681C1393.53 228.681 1399.48 226.923 1404.75 223.407C1410.03 219.787 1414.17 215.029 1417.17 209.133C1420.17 203.238 1421.67 196.825 1421.67 189.896C1421.67 182.759 1420.07 176.243 1416.86 170.348C1413.76 164.349 1409.57 159.591 1404.29 156.075C1399.01 152.558 1393.22 150.8 1386.9 150.8C1380.39 150.8 1374.49 152.61 1369.21 156.23C1363.93 159.85 1359.74 164.607 1356.64 170.503C1353.64 176.398 1352.14 182.863 1352.14 189.896C1352.14 197.239 1353.69 203.859 1356.79 209.754C1360 215.546 1364.24 220.149 1369.52 223.562C1374.8 226.975 1380.59 228.681 1386.9 228.681Z" fill="white"></path>
<path d="M1634.96 172.828V271.499H1592.12V184.619C1592.12 179.137 1590.78 174.224 1588.09 169.88C1585.5 165.433 1581.98 161.916 1577.54 159.33C1573.19 156.745 1568.32 155.452 1562.94 155.452C1557.56 155.452 1552.65 156.745 1548.2 159.33C1543.75 161.916 1540.23 165.433 1537.64 169.88C1535.06 174.224 1533.76 179.137 1533.76 184.619V271.499H1490.92L1490.77 116.356H1533.61L1533.76 127.836C1538.94 122.872 1544.99 118.993 1551.92 116.201C1558.96 113.408 1566.36 112.012 1574.12 112.012C1585.4 112.012 1595.59 114.753 1604.7 120.234C1613.91 125.716 1621.25 133.06 1626.74 142.265C1632.22 151.366 1634.96 161.554 1634.96 172.828Z" fill="white"></path>
<path d="M1801.56 54.3008H1850.3L1929.15 271.501H1883.67L1870.63 235.506H1781.23L1768.19 271.501H1722.71L1801.56 54.3008ZM1796.9 192.688H1854.95L1825.77 113.1L1796.9 192.688Z" fill="white"></path>
<path d="M1968.18 271.501V54.3008H2011.02V271.501H1968.18Z" fill="white"></path>
</g>
<defs>
<clipPath id="clip0_6802_6832">
<rect width="2054" height="362" fill="white"></rect>
</clipPath>
</defs>
</svg>