<svg width="362" height="362" viewBox="0 0 362 362" fill="none" xmlns="http://www.w3.org/2000/svg">
  <path d="M321.186 210.772C321.184 220.458 321.186 224.763 321.186 224.763C321.186 224.763 321.263 247.854 321.186 258.323C321.111 268.789 308.695 274.461 300.793 269.922C292.892 265.384 248.692 226.244 248.692 226.244C246.412 224.404 243.573 223.4 240.648 223.4H125.163C108.515 223.4 79.1738 210.343 79.1738 193.552V71.1721C79.1738 54.3814 92.7121 40.7266 109.36 40.7266L290.476 57.4636C307.123 57.4636 321.111 71.5905 321.111 88.3814L321.186 189.247C321.186 206.038 321.188 201.086 321.186 210.772Z" fill="#FFFFFF"></path>
  <path d="M46.3959 270.217C47.5261 271.351 48.6562 272.486 48.6562 272.486L94.5462 318.678C99.9237 324.18 109.246 320.361 109.246 312.653V279.034C109.246 274.217 113.189 270.337 117.99 270.432L251.326 273.063C269.258 273.063 283.839 259.418 283.839 242.637L300.862 120.927C300.862 104.147 286.278 90.5 268.348 90.5L73.2606 107.227C55.3288 107.227 40.7461 120.874 40.7461 137.654C40.7461 137.654 40.6818 243.368 40.7504 254.341C40.8187 265.317 45.2658 269.084 46.3959 270.217Z" fill="#FFFFFF"></path>
  <path d="M244.257 175.11C241.092 184.685 235.74 193.449 228.66 200.682L227.963 201.382C220.716 208.567 211.892 214.006 202.201 217.171C192.192 220.441 181.544 221.189 171.237 219.225L170.319 219.042C160.846 217.102 152.021 213.171 143.915 206.14C144.004 206.217 144.084 206.285 144.115 206.311C144.107 206.304 143.965 206.186 143.807 206.05C143.562 205.839 142.674 205.074 141.732 203.951C140.949 203.019 138.814 200.332 137.988 196.17C136.975 191.067 138.34 185.906 141.499 182.006L141.81 181.633C147.001 175.579 155.606 173.886 162.666 177.333L163.345 177.684C170.52 181.583 175.832 184.228 179.911 185.105L180.301 185.185C184.515 185.988 186.677 185.87 191.393 184.329C195.682 182.928 199.717 180.51 203.126 177.23L203.798 176.564C206.575 173.728 209.217 168.93 211.443 163.639L211.883 162.575C214.44 156.273 222.095 149.835 232.012 152.219L232.485 152.34C241.975 154.872 247.515 164.768 244.558 174.181L244.257 175.11Z" fill="#142572"></path>
</svg>