<svg width="300" height="300" viewBox="0 0 300 300" fill="none" xmlns="http://www.w3.org/2000/svg">
<path d="M95.5208 205.179H197.435L262.718 206.283C265.899 206.337 268.507 203.772 268.505 200.59L268.442 86.0473C268.442 71.2322 256.097 58.7677 241.406 58.7677L81.5751 44C66.884 44 54.9366 56.0481 54.9366 70.8631V178.843C54.9366 193.658 80.8297 205.179 95.5208 205.179Z" fill="#6B96EC"/>
<path d="M235.55 222.153C235.55 236.959 222.681 249 206.856 249C206.856 249 40.9627 247.286 32.9776 247.286C24.9925 247.286 21.0883 242.163 21.0279 232.481C20.9675 222.799 21.0241 129.524 21.0241 129.524C21.0241 114.718 33.8931 102.677 49.7175 102.677L221.878 87.918C237.702 87.918 250.571 99.9589 250.571 114.765L235.55 222.153Z" fill="#142572"/>
<path d="M178.566 201.528C178.197 202.167 177.706 202.714 177.105 203.145C173.899 205.447 162.881 213.348 156.074 218.08C154.672 219.055 152.823 219.12 151.333 218.259C149.842 217.398 148.976 215.764 149.084 214.061C149.608 205.798 150.171 192.065 150.339 187.833C150.373 186.985 150.611 186.169 151.034 185.436L204.318 93.1453L231.936 109.09L178.566 201.528ZM233.174 81.6918C239.105 85.1164 241.166 92.6509 237.777 98.5208L234.271 104.595L206.653 88.65L210.16 82.576C213.549 76.7064 221.105 74.724 227.036 78.1484L233.174 81.6918Z" fill="white"/>
<path d="M54.9366 211.948L113.827 211.948" stroke="white" stroke-width="16" stroke-linecap="round"/>
</svg>
